<svg xmlns="http://www.w3.org/2000/svg" viewBox="0 0 120 900" fill="none">
  <!-- Tige principale sinueuse -->
  <path d="M60 0 C55 80 70 160 58 240 C46 320 68 400 55 480 C42 560 65 640 52 720 C39 800 62 860 58 900" 
        stroke="#4a7a4a" stroke-width="2.5" stroke-linecap="round"/>

  <!-- Branches et feuilles gauche -->
  <path d="M58 80 C40 70 20 60 10 45" stroke="#5a8a5a" stroke-width="1.5" stroke-linecap="round"/>
  <ellipse cx="8" cy="42" rx="12" ry="7" fill="#6aaa5a" transform="rotate(-30 8 42)" opacity="0.9"/>
  <ellipse cx="5" cy="44" rx="8" ry="5" fill="#4a8a4a" transform="rotate(-20 5 44)" opacity="0.7"/>

  <path d="M56 160 C38 148 18 155 5 148" stroke="#5a8a5a" stroke-width="1.5" stroke-linecap="round"/>
  <ellipse cx="3" cy="146" rx="14" ry="8" fill="#7aba6a" transform="rotate(15 3 146)" opacity="0.9"/>
  <ellipse cx="7" cy="150" rx="9" ry="5" fill="#5a9a4a" transform="rotate(10 7 150)" opacity="0.7"/>

  <path d="M54 260 C36 250 16 258 4 252" stroke="#5a8a5a" stroke-width="1.5" stroke-linecap="round"/>
  <ellipse cx="2" cy="250" rx="13" ry="7" fill="#6aaa5a" transform="rotate(-10 2 250)" opacity="0.9"/>
  <ellipse cx="6" cy="254" rx="8" ry="5" fill="#4a8a4a" transform="rotate(-5 6 254)" opacity="0.7"/>

  <path d="M52 360 C34 352 15 358 3 353" stroke="#5a8a5a" stroke-width="1.5" stroke-linecap="round"/>
  <ellipse cx="1" cy="351" rx="14" ry="8" fill="#7aba6a" transform="rotate(20 1 351)" opacity="0.85"/>
  <ellipse cx="5" cy="355" rx="9" ry="5" fill="#5a9a4a" transform="rotate(15 5 355)" opacity="0.7"/>

  <path d="M53 460 C35 450 15 455 3 450" stroke="#5a8a5a" stroke-width="1.5" stroke-linecap="round"/>
  <ellipse cx="1" cy="448" rx="13" ry="7" fill="#6aaa5a" transform="rotate(-25 1 448)" opacity="0.9"/>
  <ellipse cx="5" cy="452" rx="8" ry="5" fill="#4a8a4a" transform="rotate(-18 5 452)" opacity="0.7"/>

  <path d="M50 560 C32 550 12 556 2 551" stroke="#5a8a5a" stroke-width="1.5" stroke-linecap="round"/>
  <ellipse cx="0" cy="549" rx="14" ry="8" fill="#7aba6a" transform="rotate(12 0 549)" opacity="0.85"/>
  <ellipse cx="4" cy="553" rx="9" ry="5" fill="#5a9a4a" transform="rotate(8 4 553)" opacity="0.7"/>

  <path d="M51 650 C33 642 13 647 1 642" stroke="#5a8a5a" stroke-width="1.5" stroke-linecap="round"/>
  <ellipse cx="0" cy="640" rx="13" ry="7" fill="#6aaa5a" transform="rotate(-15 0 640)" opacity="0.9"/>
  <ellipse cx="4" cy="644" rx="8" ry="5" fill="#4a8a4a" transform="rotate(-10 4 644)" opacity="0.7"/>

  <path d="M50 750 C32 742 12 747 0 742" stroke="#5a8a5a" stroke-width="1.5" stroke-linecap="round"/>
  <ellipse cx="0" cy="740" rx="14" ry="8" fill="#7aba6a" transform="rotate(22 0 740)" opacity="0.85"/>
  <ellipse cx="4" cy="744" rx="9" ry="5" fill="#5a9a4a" transform="rotate(16 4 744)" opacity="0.7"/>

  <path d="M50 850 C32 842 12 847 0 842" stroke="#5a8a5a" stroke-width="1.5" stroke-linecap="round"/>
  <ellipse cx="0" cy="840" rx="13" ry="7" fill="#6aaa5a" transform="rotate(-8 0 840)" opacity="0.9"/>

  <!-- Branches et feuilles droite -->
  <path d="M62 120 C80 108 98 112 108 105" stroke="#5a8a5a" stroke-width="1.5" stroke-linecap="round"/>
  <ellipse cx="110" cy="103" rx="13" ry="7" fill="#8aca6a" transform="rotate(25 110 103)" opacity="0.85"/>
  <ellipse cx="106" cy="107" rx="8" ry="5" fill="#6aaa5a" transform="rotate(18 106 107)" opacity="0.7"/>

  <path d="M60 210 C78 200 96 205 106 198" stroke="#5a8a5a" stroke-width="1.5" stroke-linecap="round"/>
  <ellipse cx="108" cy="196" rx="14" ry="8" fill="#7aba6a" transform="rotate(-20 108 196)" opacity="0.9"/>
  <ellipse cx="104" cy="200" rx="9" ry="5" fill="#5a9a4a" transform="rotate(-14 104 200)" opacity="0.7"/>

  <path d="M58 310 C76 300 94 306 104 299" stroke="#5a8a5a" stroke-width="1.5" stroke-linecap="round"/>
  <ellipse cx="106" cy="297" rx="13" ry="7" fill="#8aca6a" transform="rotate(30 106 297)" opacity="0.85"/>
  <ellipse cx="102" cy="301" rx="8" ry="5" fill="#6aaa5a" transform="rotate(22 102 301)" opacity="0.7"/>

  <path d="M56 410 C74 400 92 406 102 399" stroke="#5a8a5a" stroke-width="1.5" stroke-linecap="round"/>
  <ellipse cx="104" cy="397" rx="14" ry="8" fill="#7aba6a" transform="rotate(-12 104 397)" opacity="0.9"/>
  <ellipse cx="100" cy="401" rx="9" ry="5" fill="#5a9a4a" transform="rotate(-8 100 401)" opacity="0.7"/>

  <path d="M54 510 C72 500 90 506 100 499" stroke="#5a8a5a" stroke-width="1.5" stroke-linecap="round"/>
  <ellipse cx="102" cy="497" rx="13" ry="7" fill="#8aca6a" transform="rotate(18 102 497)" opacity="0.85"/>
  <ellipse cx="98" cy="501" rx="8" ry="5" fill="#6aaa5a" transform="rotate(12 98 501)" opacity="0.7"/>

  <path d="M52 610 C70 600 88 606 98 599" stroke="#5a8a5a" stroke-width="1.5" stroke-linecap="round"/>
  <ellipse cx="100" cy="597" rx="14" ry="8" fill="#7aba6a" transform="rotate(-28 100 597)" opacity="0.9"/>
  <ellipse cx="96" cy="601" rx="9" ry="5" fill="#5a9a4a" transform="rotate(-20 96 601)" opacity="0.7"/>

  <path d="M51 700 C69 690 87 696 97 689" stroke="#5a8a5a" stroke-width="1.5" stroke-linecap="round"/>
  <ellipse cx="99" cy="687" rx="13" ry="7" fill="#8aca6a" transform="rotate(14 99 687)" opacity="0.85"/>
  <ellipse cx="95" cy="691" rx="8" ry="5" fill="#6aaa5a" transform="rotate(9 95 691)" opacity="0.7"/>

  <path d="M50 800 C68 790 86 796 96 789" stroke="#5a8a5a" stroke-width="1.5" stroke-linecap="round"/>
  <ellipse cx="98" cy="787" rx="14" ry="8" fill="#7aba6a" transform="rotate(-18 98 787)" opacity="0.9"/>
  <ellipse cx="94" cy="791" rx="9" ry="5" fill="#5a9a4a" transform="rotate(-12 94 791)" opacity="0.7"/>

  <!-- Petites fleurs/baies décoratives -->
  <circle cx="15" cy="300" r="3" fill="#e8a0a0" opacity="0.8"/>
  <circle cx="12" cy="298" r="2" fill="#d47070" opacity="0.7"/>

  <circle cx="100" cy="450" r="3" fill="#e8c070" opacity="0.8"/>
  <circle cx="103" cy="448" r="2" fill="#c8a050" opacity="0.7"/>

  <circle cx="10" cy="580" r="3" fill="#e8a0a0" opacity="0.8"/>
  <circle cx="7" cy="578" r="2" fill="#d47070" opacity="0.7"/>

  <circle cx="98" cy="680" r="3" fill="#e8c070" opacity="0.8"/>
  <circle cx="101" cy="678" r="2" fill="#c8a050" opacity="0.7"/>

  <circle cx="8" cy="780" r="3" fill="#e8a0a0" opacity="0.8"/>
  <circle cx="5" cy="778" r="2" fill="#d47070" opacity="0.7"/>
</svg>
